<?xml version="1.0" encoding="UTF-8"?>
<svg width="757px" height="777px" viewBox="0 0 757 777" version="1.1" xmlns="http://www.w3.org/2000/svg" xmlns:xlink="http://www.w3.org/1999/xlink">
    <!-- Generator: Sketch 46.1 (44463) - http://www.bohemiancoding.com/sketch -->
    <title>Artboard</title>
    <desc>Created with Sketch.</desc>
    <defs></defs>
    <g id="Page-1" stroke="none" stroke-width="1" fill="none" fill-rule="evenodd" stroke-linecap="square" opacity="0.5">
        <g id="Artboard" stroke-width="4">
            <path d="M25,16 L34.7159989,25.7159989" id="Path" stroke="#FFFFFF" transform="translate(30.000000, 21.000000) rotate(-306.638001) translate(-30.000000, -21.000000) "></path>
            <path d="M220.426237,301.426237 L230.142236,311.142236" id="Path-Copy-3" stroke="#FFFFFF" transform="translate(225.426237, 306.426237) rotate(-200.341029) translate(-225.426237, -306.426237) "></path>
            <path d="M235.870249,122 L229.60547,128.264778" id="Path-Copy" stroke="#F4F794" transform="translate(232.500000, 125.500000) rotate(-266.756041) translate(-232.500000, -125.500000) "></path>
            <path d="M439.870249,313 L433.60547,319.264778" id="Path-Copy-4" stroke="#F4F794" transform="translate(436.500000, 316.500000) rotate(-95.301546) translate(-436.500000, -316.500000) "></path>
            <path d="M186.870249,423 L180.60547,429.264778" id="Path-Copy-7" stroke="#F4F794" transform="translate(183.500000, 426.500000) rotate(-147.817956) translate(-183.500000, -426.500000) "></path>
            <path d="M478.870249,38 L472.60547,44.2647784" id="Path-Copy-9" stroke="#F4F794" transform="translate(475.500000, 41.500000) rotate(-61.179322) translate(-475.500000, -41.500000) "></path>
            <path d="M729.870249,198 L723.60547,204.264778" id="Path-Copy-11" stroke="#F4F794" transform="translate(726.500000, 201.500000) rotate(-344.820517) translate(-726.500000, -201.500000) "></path>
            <path d="M686.870249,529 L680.60547,535.264778" id="Path-Copy-14" stroke="#F4F794" transform="translate(683.500000, 532.500000) rotate(-351.642068) translate(-683.500000, -532.500000) "></path>
            <path d="M467.870249,635 L461.60547,641.264778" id="Path-Copy-17" stroke="#F4F794" transform="translate(464.500000, 638.500000) rotate(-212.579307) translate(-464.500000, -638.500000) "></path>
            <path d="M187.468545,750.598296 L181.203767,756.863075" id="Path-Copy-20" stroke="#F4F794" transform="translate(184.098296, 754.098296) rotate(-280.891882) translate(-184.098296, -754.098296) "></path>
            <path d="M137,174 L137,182.859735" id="Path-Copy-2" stroke="#B7E3E4" transform="translate(137.500000, 178.429867) rotate(-11.768345) translate(-137.500000, -178.429867) "></path>
            <path d="M381,89 L381,97.8597346" id="Path-Copy-10" stroke="#B7E3E4" transform="translate(381.500000, 93.429867) rotate(-333.211760) translate(-381.500000, -93.429867) "></path>
            <path d="M559.689863,219.988496 L559.689863,228.848231" id="Path-Copy-12" stroke="#B7E3E4" transform="translate(560.189863, 224.418364) rotate(-116.412741) translate(-560.189863, -224.418364) "></path>
            <circle id="Oval" stroke="#B7E3E4" transform="translate(164.000000, 56.000000) rotate(-17.444120) translate(-164.000000, -56.000000) " cx="164" cy="56" r="6"></circle>
            <circle id="Oval-Copy" stroke="#FFFFFF" transform="translate(77.000000, 262.000000) rotate(-123.490656) translate(-77.000000, -262.000000) " cx="77" cy="262" r="5"></circle>
            <circle id="Oval-Copy-3" stroke="#FFFFFF" transform="translate(281.000000, 453.000000) rotate(-353.979396) translate(-281.000000, -453.000000) " cx="281" cy="453" r="5"></circle>
            <circle id="Oval-Copy-5" stroke="#FFFFFF" transform="translate(28.000000, 563.000000) rotate(-159.924347) translate(-28.000000, -563.000000) " cx="28" cy="563" r="5"></circle>
            <circle id="Oval-Copy-7" stroke="#FFFFFF" transform="translate(320.000000, 178.000000) rotate(-80.580551) translate(-320.000000, -178.000000) " cx="320" cy="178" r="5"></circle>
            <circle id="Oval-Copy-8" stroke="#FFFFFF" transform="translate(571.000000, 338.000000) rotate(-152.937414) translate(-571.000000, -338.000000) " cx="571" cy="338" r="5"></circle>
            <circle id="Oval-Copy-10" stroke="#FFFFFF" transform="translate(622.057444, 702.057444) rotate(-318.557262) translate(-622.057444, -702.057444) " cx="622.057444" cy="702.057444" r="5"></circle>
            <circle id="Oval-Copy-12" stroke="#FFFFFF" transform="translate(309.000000, 743.000000) rotate(-59.837035) translate(-309.000000, -743.000000) " cx="309" cy="743" r="5"></circle>
            <path d="M519,92 L528.715999,101.715999" id="Path-Copy-13" stroke="#FFFFFF" transform="translate(524.000000, 97.000000) rotate(-174.007751) translate(-524.000000, -97.000000) "></path>
            <path d="M476,423 L485.715999,432.715999" id="Path-Copy-16" stroke="#FFFFFF" transform="translate(481.000000, 428.000000) rotate(-100.017772) translate(-481.000000, -428.000000) "></path>
            <path d="M257,529 L266.715999,538.715999" id="Path-Copy-19" stroke="#FFFFFF" transform="translate(262.000000, 534.000000) rotate(-95.698486) translate(-262.000000, -534.000000) "></path>
            <path d="M18,635 L27.7159989,644.715999" id="Path-Copy-22" stroke="#FFFFFF" transform="translate(23.000000, 640.000000) rotate(-107.797105) translate(-23.000000, -640.000000) "></path>
            <circle id="Oval-Copy-9" stroke="#B7E3E4" transform="translate(672.480134, 114.480134) rotate(-253.171040) translate(-672.480134, -114.480134) " cx="672.480134" cy="114.480134" r="6"></circle>
            <circle id="Oval-Copy-11" stroke="#B7E3E4" transform="translate(615.000000, 463.000000) rotate(-96.537619) translate(-615.000000, -463.000000) " cx="615" cy="463" r="6"></circle>
            <circle id="Oval-Copy-13" stroke="#B7E3E4" transform="translate(396.000000, 569.000000) rotate(-83.843161) translate(-396.000000, -569.000000) " cx="396" cy="569" r="6"></circle>
            <circle id="Oval-Copy-15" stroke="#B7E3E4" transform="translate(156.475918, 595.475918) rotate(-137.691844) translate(-156.475918, -595.475918) " cx="156.475918" cy="595.475918" r="6"></circle>
        </g>
    </g>
</svg>